<svg width="24" height="17" viewBox="0 0 24 17" fill="none" xmlns="http://www.w3.org/2000/svg">
<path d="M9.70312 11.474C11.5469 10.724 13.3125 10.349 15 10.349C16.6875 10.349 18.4375 10.724 20.25 11.474C22.0938 12.1927 23.0156 13.1458 23.0156 14.3333V16.349H6.98438V14.3333C6.98438 13.1458 7.89062 12.1927 9.70312 11.474ZM6 6.3177H9V8.33333H6V11.3333H3.98438V8.33333H0.984375V6.3177H3.98438V3.3177H6V6.3177ZM17.8125 7.16145C17.0312 7.9427 16.0938 8.33333 15 8.33333C13.9062 8.33333 12.9688 7.9427 12.1875 7.16145C11.4062 6.3802 11.0156 5.4427 11.0156 4.34895C11.0156 3.2552 11.4062 2.3177 12.1875 1.53645C12.9688 0.723953 13.9062 0.317703 15 0.317703C16.0938 0.317703 17.0312 0.723953 17.8125 1.53645C18.5938 2.3177 18.9844 3.2552 18.9844 4.34895C18.9844 5.4427 18.5938 6.3802 17.8125 7.16145Z" fill="black" fill-opacity="0.3"/>
</svg>
